PathFileType	4	(X/Y/Z)	D:\TRACE\v60_Jaco2_6-2-23\JustBodyDRS_Motion1_8-platform.trc
DataRate	CameraRate	NumFrames	NumMarkers	Units	OrigDataRate	OrigDataStartFrame	OrigNumFrames
100.00	100.00	      66	5	mm	100.00	5035	      6712
Frame#	Time	Left_Front			Right_Front			Left_Aft			Right_Aft			Post			
		X1	Y1	Z1	X2	Y2	Z2	X3	Y3	Z3	X4	Y4	Z4	X5	Y5	Z5	

5035	50.340	-809.71844	32.17605	-632.71393	760.28979	32.94155	-638.13281	-717.36908	-8.67398	501.47305	724.57361	-10.02282	510.68350	-22.97298	1341.55457	-910.84369	
5036	50.350	-808.69287	32.47986	-632.78778	761.40198	33.16579	-638.06628	-716.77667	-8.45212	501.46606	725.27722	-10.17413	510.72968	-22.11209	1341.86438	-910.24323	
5037	50.360	-807.51056	32.81778	-632.74652	762.25903	33.46698	-638.22363	-715.72070	-8.57992	501.58438	726.22906	-10.39478	510.72092	-20.81051	1342.06641	-909.56470	
5038	50.370	-806.66187	32.98895	-632.81958	763.37500	33.73259	-638.05511	-714.76471	-8.70946	501.60217	727.49500	-10.44058	510.86279	-20.10936	1342.32568	-908.90778	
5039	50.380	-805.96057	33.26935	-632.81116	764.38251	33.80214	-637.87469	-713.76825	-8.93633	501.44641	727.87524	-10.75148	510.88361	-19.06182	1342.80579	-907.99249	
5040	50.390	-804.77905	33.50285	-632.89850	765.20227	33.95152	-637.83496	-713.61310	-8.58402	501.67294	729.24127	-10.78406	510.87219	-18.16485	1343.08191	-907.26807	
5041	50.400	-803.68402	33.48380	-632.64221	766.02130	34.11946	-637.93518	-712.56018	-8.71532	501.85699	730.26599	-10.93821	510.89587	-16.96645	1343.38098	-906.81610	
5042	50.410	-802.90662	33.66803	-632.22961	767.08093	34.41769	-637.97961	-711.45734	-9.01625	501.89713	730.78381	-11.27018	511.02542	-16.32693	1343.71777	-906.68109	
5043	50.420	-802.02679	34.23730	-632.49475	768.23865	34.71118	-637.62347	-710.29492	-9.27426	501.88846	732.23096	-11.32518	511.06509	-15.72422	1344.11438	-906.50201	
5044	50.430	-800.91870	34.20568	-632.60370	769.21686	34.97269	-637.53979	-709.32977	-9.52415	502.08047	732.72894	-11.44629	511.02893	-13.77271	1344.43921	-906.18530	
5045	50.440	-799.94611	34.16794	-632.37274	770.05554	35.03224	-637.66162	-707.94812	-9.89908	501.95483	734.02234	-11.69380	511.12918	-13.20026	1344.59265	-906.11707	
5046	50.450	-798.84692	34.39649	-632.34692	770.84467	35.14899	-637.68286	-707.55255	-9.82636	502.05847	734.93579	-11.83323	511.13367	-12.68447	1344.70166	-905.64728	
5047	50.460	-798.21393	34.68489	-632.30975	771.84686	35.31985	-637.50507	-706.47516	-9.92494	501.90744	735.66119	-11.88490	511.24469	-11.31081	1344.91541	-904.69531	
5048	50.470	-797.07794	34.76272	-632.26947	772.90491	35.71041	-637.45490	-705.41693	-10.01440	501.96497	737.16010	-11.96232	511.21204	-10.34536	1345.28638	-904.45697	
5049	50.480	-796.00671	35.12249	-632.11536	773.90497	35.99946	-637.40735	-704.44312	-10.19498	502.07416	737.97650	-12.17819	511.20386	-9.35093	1345.63000	-903.80029	
5050	50.490	-795.11304	35.16255	-632.01178	774.73590	36.02859	-637.48322	-703.22986	-10.50017	502.20404	738.70123	-12.21480	511.24121	-8.60919	1345.85754	-903.16553	
5051	50.500	-794.36743	35.13937	-632.19000	775.72986	36.19448	-637.57544	-702.47516	-10.60445	502.14005	739.99640	-12.28210	511.26318	-7.66685	1346.00854	-902.71637	
5052	50.510	-793.04218	35.23704	-632.20410	776.65576	36.15561	-637.38763	-701.52429	-10.60171	502.07663	741.05829	-12.41710	511.23160	-6.37810	1346.20813	-902.07092	
5053	50.520	-792.08411	35.69051	-631.94696	777.74487	36.56690	-637.25494	-700.57361	-10.65067	502.21249	741.94971	-12.50556	511.38000	-5.76918	1346.59460	-901.99207	
5054	50.530	-791.28735	35.85686	-631.70178	778.72070	36.84850	-637.41907	-699.46594	-10.81500	502.20392	742.80652	-12.76714	511.38226	-4.79273	1347.02563	-901.74603	
5055	50.540	-790.21722	36.12147	-631.88824	779.65271	37.04476	-637.29413	-698.49677	-11.02796	502.24307	743.69513	-12.79419	511.34253	-3.65207	1347.23401	-901.59991	
5056	50.550	-789.24420	36.40833	-632.29205	780.70923	37.03222	-637.17517	-697.04736	-11.72742	502.38776	744.95410	-12.91475	511.44199	-2.97813	1347.42529	-901.63452	
5057	50.560	-788.33990	36.46066	-631.85052	781.53955	37.07650	-637.16516	-696.53229	-11.58260	502.09290	745.55701	-13.25801	511.36234	-2.12992	1347.47253	-901.21198	
5058	50.570	-787.46906	36.62954	-631.51855	782.60760	37.46902	-637.27240	-695.64478	-11.70941	502.23669	746.44110	-13.17721	511.62289	-0.59275	1347.67175	-900.60339	
5059	50.580	-786.25287	37.05735	-631.90759	783.59540	37.57980	-637.07416	-694.38062	-11.70060	502.49234	747.75348	-13.31164	511.55518	0.13563	1348.02905	-900.36597	
5060	50.590	-785.49908	37.28735	-631.99554	784.49182	37.92035	-636.90167	-693.53326	-11.86620	502.60596	748.27631	-13.60541	511.38818	1.06909	1348.28418	-899.55328	
5061	50.600	-784.58270	37.10635	-631.64838	785.31274	38.06680	-637.06616	-692.51636	-11.88600	502.51706	749.53046	-13.24261	511.56219	1.71854	1348.32129	-899.24139	
5062	50.610	-783.53467	37.43010	-631.58209	786.34009	38.26201	-637.31335	-691.63513	-12.01042	502.44836	750.31989	-13.61273	511.61481	2.80094	1348.40015	-898.86902	
5063	50.620	-782.47479	37.23220	-632.01117	787.32617	38.12597	-637.04639	-690.73999	-12.12175	502.41141	750.95654	-13.88946	511.54666	4.21324	1348.44348	-898.37872	
5064	50.630	-781.70862	37.18633	-631.94995	788.07349	38.29997	-637.03802	-689.66571	-12.24782	502.28818	752.60840	-13.61069	511.64597	5.01541	1348.70105	-898.40912	
5065	50.640	-780.89386	37.27750	-631.54932	789.31573	38.47120	-636.86658	-688.77808	-12.24172	502.40356	753.02710	-14.02567	511.74829	5.57045	1348.91101	-898.47754	
5066	50.650	-779.78461	37.63777	-631.55646	790.20367	38.33525	-636.82965	-687.93427	-12.29278	502.50192	754.20837	-14.03204	511.62839	6.83880	1349.12622	-898.37561	
5067	50.660	-778.78571	37.64143	-631.74652	791.11090	38.57968	-636.89429	-686.97064	-12.32876	502.51797	755.28400	-13.89321	511.67319	7.63480	1349.38330	-898.53949	
5068	50.670	-778.07843	37.71127	-631.71106	791.95648	38.77726	-636.90387	-686.08887	-12.59423	502.51761	755.91614	-14.33191	511.73615	8.63722	1349.53247	-898.59216	
5069	50.680	-777.04419	37.79453	-631.48499	792.94910	38.85839	-636.88971	-685.26202	-12.56524	502.62396	757.09082	-14.28567	511.81219	9.52042	1349.71558	-898.40210	
5070	50.690	-776.12396	37.95577	-631.27979	793.85767	39.09029	-636.68396	-684.19189	-12.84451	502.69135	757.69751	-14.13388	511.74725	10.72051	1349.82385	-897.86639	
5071	50.700	-775.03595	37.98719	-631.55005	794.55884	39.15404	-636.78815	-683.16296	-12.93483	502.71326	758.65430	-14.56531	511.72159	11.30738	1349.98901	-897.49573	
5072	50.710	-774.53827	38.15405	-631.57416	795.67761	39.28125	-636.64844	-682.47137	-13.00721	502.55423	759.83344	-14.52741	511.78381	12.06971	1350.06396	-897.01740	
5073	50.720	-773.46729	38.18689	-631.54834	796.35229	39.31635	-636.69763	-681.45898	-12.90136	502.45425	760.50885	-14.53579	511.83612	13.18605	1350.27502	-896.05133	
5074	50.730	-772.63678	38.39594	-631.19769	797.28064	39.38176	-636.76044	-680.60535	-12.89495	502.56961	761.05127	-14.71343	511.76474	13.76657	1350.44238	-895.75903	
5075	50.740	-771.60065	38.32849	-631.31335	798.29004	39.54294	-636.87335	-679.80267	-12.99860	502.62784	762.52643	-14.66943	511.72452	14.56148	1350.54749	-895.25665	
5076	50.750	-770.85583	38.56422	-631.41803	799.12823	39.55903	-636.78625	-678.87549	-13.14642	502.68958	763.21893	-14.67486	511.75726	15.71276	1350.55139	-895.14331	
5077	50.760	-770.21301	38.44624	-631.35016	799.88165	39.65130	-636.55664	-678.08612	-13.15617	502.74969	763.77808	-14.78598	511.80069	16.66643	1350.67749	-895.23328	
5078	50.770	-769.26129	38.45598	-631.31525	800.64532	39.80762	-636.58673	-677.32220	-13.16127	502.78976	764.95673	-14.78552	511.67633	16.95724	1350.73938	-895.52203	
5079	50.780	-768.23175	38.42330	-631.28528	801.56726	39.70142	-636.75629	-676.38141	-13.18289	502.73370	765.62390	-14.91554	511.70834	17.63541	1350.81213	-896.08118	
5080	50.790	-767.55627	38.49914	-631.27887	802.30072	39.66499	-636.78125	-675.60583	-13.33336	502.37784	766.24286	-14.89293	511.69290	19.08088	1350.76160	-896.59753	
5081	50.800	-766.90845	38.66619	-631.45642	803.09882	39.76054	-636.71924	-674.84448	-13.13340	502.27112	767.37030	-14.82809	511.84573	19.73875	1350.84045	-896.42120	
5082	50.810	-766.17371	38.61639	-631.21082	803.76019	39.67688	-636.70868	-674.04071	-13.47011	502.62946	767.99286	-15.06009	511.64191	20.70637	1350.84082	-895.97144	
5083	50.820	-765.16223	38.58431	-631.24976	804.74603	39.76848	-636.72083	-673.24609	-13.56442	502.71484	768.60785	-15.07842	511.68051	21.15118	1350.97827	-895.98785	
5084	50.830	-764.32782	38.62416	-631.22241	805.63458	39.95684	-636.68359	-672.38708	-13.44527	502.74487	769.81226	-14.85268	511.72021	21.71533	1351.15710	-895.82489	
5085	50.840	-763.59180	38.83382	-631.27655	806.40216	40.25808	-636.49646	-671.80768	-13.43886	502.66095	770.36139	-15.08283	511.78372	22.94455	1351.16943	-895.15039	
5086	50.850	-763.15778	38.81831	-631.31323	806.75055	40.22030	-636.66534	-670.91412	-13.42560	502.73300	771.11682	-15.22325	511.70822	23.34567	1351.28210	-894.60309	
5087	50.860	-762.36249	38.80227	-631.28406	807.65955	40.22783	-636.67651	-670.21448	-13.45399	502.68887	771.62061	-15.15110	511.62613	23.87027	1351.23022	-894.14978	
5088	50.870	-761.50342	38.76107	-631.25439	808.38055	40.10740	-636.67987	-669.68951	-13.50902	502.60315	772.54425	-14.92652	511.76349	24.65877	1351.26709	-893.73114	
5089	50.880	-760.60107	38.66154	-631.25641	809.05811	40.02744	-636.58466	-668.91760	-13.45596	502.62457	773.20776	-14.99643	511.71417	25.92427	1351.15308	-893.68048	
5090	50.890	-760.06512	38.81382	-631.26398	809.74518	40.00752	-636.61523	-668.09296	-13.46920	502.62817	773.66449	-15.10654	511.71790	26.42753	1351.12708	-894.01581	
5091	50.900	-759.54071	38.81156	-631.20990	810.43756	40.11959	-636.68848	-667.44214	-13.46893	502.67889	774.52985	-15.00625	511.63992	26.76101	1351.15857	-894.57495	
5092	50.910	-759.06927	38.64622	-631.34595	811.14777	40.06894	-636.78699	-666.80194	-13.38139	502.70480	775.27863	-14.96759	511.64526	27.42586	1351.12781	-895.01819	
5093	50.920	-758.32349	38.55119	-631.37628	811.73334	39.91938	-636.68689	-666.31085	-13.32804	502.63928	775.96198	-14.85152	511.60690	28.53574	1350.99524	-895.76184	
5094	50.930	-757.44281	38.57001	-631.32135	812.29895	39.90092	-636.71198	-665.67511	-13.39652	502.54477	776.29449	-14.89156	511.58157	28.94046	1350.84680	-895.99866	
5095	50.940	-756.77765	38.61537	-631.35138	812.90063	39.88722	-636.71655	-665.14618	-13.36630	502.54965	777.07520	-14.65598	511.67465	29.60619	1350.77014	-896.53107	
5096	50.950	-756.39313	38.71080	-631.36334	813.39740	39.84901	-636.79590	-664.52985	-13.23745	502.53488	777.51831	-14.66086	511.71207	30.13595	1350.71729	-896.97388	
5097	50.960	-755.87866	38.73421	-631.41235	813.93878	39.89144	-636.94525	-664.04584	-13.29522	502.49915	778.07507	-14.71854	511.64227	30.42278	1350.72876	-897.04688	
5098	50.970	-755.57672	38.53461	-631.38745	814.64191	39.79176	-636.86816	-663.52771	-13.21900	502.48203	778.73041	-14.72092	511.61569	31.04837	1350.61914	-896.85236	
5099	50.980	-754.96857	38.19064	-631.55548	815.03125	39.27055	-636.87482	-662.81641	-13.32680	502.56927	779.10571	-14.77154	511.52106	31.58843	1350.45715	-896.55963	
5100	50.990	-754.31042	37.91559	-631.61523	815.48730	39.04594	-636.90051	-662.10431	-13.24896	502.50348	779.90204	-14.44868	511.64322	32.28949	1350.28369	-896.23584	
